# xmcd CD database file generated by OrangeCD 5.2
#
# Track frame offsets:
#	150
#	19177
#	30232
#	43625
#	57268
#	73210
#	89438
#	104490
#	122898
#	137529
#	155208
#	178510
#	197855
#	216381
#	235483
#	257132
#	274835
#	296774
#	314696
#	332987
#
# Disc length: 4686 seconds
#
# Revision: 0
# Processed by: cddbd v1.5.1PL2 Copyright (c) Steve Scherf et al.
# Submitted via: OrangeCD 5.2
#
DISCID=42124c14
DTITLE=Various Artist - Rhythm and Blues Classics Volume 3
DYEAR=2006
DGENRE=Dance R&B
TTITLE0=Billy Ocean - When The Going Gets Tough The Tough Get Going
TTITLE1=The Temptations - Beauty Is Only Skin Deep
TTITLE2=Wilson Pickett - 634-5789
TTITLE3=The Miracles - You'll Really Got A Hold On Me
TTITLE4=Aretha Franklin - Spanish Harlem
TTITLE5=Redbone - Come And Get Your Love
TTITLE6=The Staple Singers - I'll Take You There
TTITLE7=Marvin Gaye - Let's Get It On
TTITLE8=Al Green - I'm Still In Love With You
TTITLE9=Laura Branigan - Gloria
TTITLE10=Fred Wesley and The J.B.'s - Doing It To Death
TTITLE11=Billy Vera and The Beaters - At This Moment
TTITLE12=Robert Palmer - Addicted To Love
TTITLE13=Rupert Holmes - Escape (The Pina Colada Song)
TTITLE14=Billy Ocean - Get Outta My Dreams Get Into My Car
TTITLE15=Blondie - The Tide Is High
TTITLE16=Billy Paul - Me And Mrs. Jones
TTITLE17=Timmy Thomas - Why Can't We LiveTogether
TTITLE18=The Pointer Sisters - Jump (For My Love)
TTITLE19=Ray Parker Jr. - Ghostbusters
EXTD=
EXTT0=
EXTT1=
EXTT2=
EXTT3=
EXTT4=
EXTT5=
EXTT6=
EXTT7=
EXTT8=
EXTT9=
EXTT10=
EXTT11=
EXTT12=
EXTT13=
EXTT14=
EXTT15=
EXTT16=
EXTT17=
EXTT18=
EXTT19=
PLAYORDER=
